<svg xmlns="http://www.w3.org/2000/svg" xmlns:xlink="http://www.w3.org/1999/xlink" fill="none" height="880" viewBox="0 0 2126 880" width="2126"> <clipPath id="a"> <path d="m-334 0h2946v4666h-2946z"></path> </clipPath> <g clip-path="url(#a)"> <path d="m1935.33 405.012c-88.84 5.608-136.36 33.323-164.4 128.833-15.53 52.604-24.54 109.036-40 160.612-53.44 181.495-196.65 199.163-269.07 177.704-145.87-43-185.43-231.64-334.74-275.739-238.54-70.201-447.915 198.353-770.632 103.486-330.0106-96.892-407.5167-476.321-324.9373-756.7602 68.2223-232.2968 286.3823-412.7828 512.5683-346.0438 163.89 48.151 312.229 204.186 425.749 237.383 473.822 139.7297 252.572-540.511 881.962-354.737 160.03 47.224 345.93 189.043 302.28 338.186-33.1 112.5013-198.3 235.6813-213.16 285.026-25.75 87.615 227.59 75.132 177.19 246.93-20.69 70.625-108.69 52.489-164.3 54.098-6.25.541-12.68.654-18.51 1.022z" fill="rgba(162, 45, 51, .2)"></path> </g> </svg> 